<svg width="24" height="21" viewBox="0 0 24 21" fill="none" xmlns="http://www.w3.org/2000/svg">
<path d="M6.75 12C7.34674 12 7.91903 11.7629 8.34099 11.341C8.76295 10.919 9 10.3467 9 9.75C9 9.15326 8.76295 8.58097 8.34099 8.15901C7.91903 7.73705 7.34674 7.5 6.75 7.5C6.15326 7.5 5.58097 7.73705 5.15901 8.15901C4.73705 8.58097 4.5 9.15326 4.5 9.75C4.5 10.3467 4.73705 10.919 5.15901 11.341C5.58097 11.7629 6.15326 12 6.75 12Z" fill="#6FA4E9"/>
<path d="M21 18C21 18.7956 20.6839 19.5587 20.1213 20.1213C19.5587 20.6839 18.7956 21 18 21H3C2.20435 21 1.44129 20.6839 0.87868 20.1213C0.316071 19.5587 0 18.7956 0 18V6C-3.97565e-07 5.20487 0.315658 4.44226 0.877619 3.87974C1.43958 3.31722 2.20187 3.0008 2.997 3C2.997 2.20435 3.31307 1.44129 3.87568 0.87868C4.43829 0.316071 5.20135 0 5.997 0H20.997C21.7927 0 22.5557 0.316071 23.1183 0.87868C23.6809 1.44129 23.997 2.20435 23.997 3V15C23.997 15.7951 23.6813 16.5577 23.1194 17.1203C22.5574 17.6828 21.7951 17.9992 21 18ZM20.997 1.5H5.997C5.59917 1.5 5.21764 1.65804 4.93634 1.93934C4.65504 2.22064 4.497 2.60218 4.497 3H18C18.7956 3 19.5587 3.31607 20.1213 3.87868C20.6839 4.44129 21 5.20435 21 6V16.5C21.3973 16.4992 21.7781 16.3408 22.0587 16.0596C22.3394 15.7784 22.497 15.3973 22.497 15V3C22.497 2.60218 22.339 2.22064 22.0577 1.93934C21.7764 1.65804 21.3948 1.5 20.997 1.5ZM3 4.5C2.60218 4.5 2.22064 4.65804 1.93934 4.93934C1.65804 5.22064 1.5 5.60218 1.5 6V18L5.469 14.469C5.5916 14.3468 5.75267 14.2709 5.92491 14.2539C6.09714 14.237 6.26994 14.2801 6.414 14.376L10.404 17.0355L15.969 11.4705C16.0802 11.3592 16.2237 11.2856 16.379 11.2603C16.5343 11.235 16.6937 11.2592 16.8345 11.3295L19.5 14.25V6C19.5 5.60218 19.342 5.22064 19.0607 4.93934C18.7794 4.65804 18.3978 4.5 18 4.5H3Z" fill="#6FA4E9"/>
</svg>
