<svg width="23" height="22" viewBox="0 0 23 22" fill="none" xmlns="http://www.w3.org/2000/svg">
<path d="M14.0956 20.6972L14.0956 20.6972C14.0291 20.7859 13.9429 20.8578 13.8437 20.9074C13.7446 20.957 13.6353 20.9828 13.5245 20.9828C13.4137 20.9828 13.3043 20.957 13.2052 20.9074C13.1061 20.8578 13.0199 20.7859 12.9534 20.6972L12.9534 20.6972L10.932 18.0023C10.8003 17.8267 10.6295 17.6842 10.4332 17.5861C10.2368 17.4879 10.0203 17.4368 9.80084 17.4368H7.1411C6.6696 17.4368 6.21741 17.2495 5.88401 16.9161C5.55061 16.5827 5.36331 16.1305 5.36331 15.659V7.14781C5.36331 6.67631 5.55061 6.22412 5.88401 5.89072C6.21741 5.55732 6.6696 5.37002 7.1411 5.37002H19.9079C20.3794 5.37002 20.8316 5.55732 21.165 5.89072C21.4984 6.22412 21.6857 6.67631 21.6857 7.14781V15.659C21.6857 16.1305 21.4984 16.5827 21.165 16.9161C20.8316 17.2495 20.3794 17.4368 19.9079 17.4368H17.2481C17.0286 17.4368 16.8121 17.4879 16.6158 17.5861C16.4195 17.6842 16.2487 17.8267 16.117 18.0023L14.0956 20.6972Z" stroke="#6FA4E9" stroke-width="0.7"/>
<circle cx="5.07142" cy="4.57142" r="4.57142" fill="white"/>
<path d="M5.07134 7.31432V4.57147M5.07134 4.57147V1.82861M5.07134 4.57147H7.8142M5.07134 4.57147H2.32849" stroke="#6FA4E9" stroke-linecap="round"/>
<line x1="7.99048" y1="9.5" x2="17.9905" y2="9.5" stroke="#6FA4E9" stroke-linecap="round"/>
<line x1="7.99048" y1="11.5" x2="17.9905" y2="11.5" stroke="#6FA4E9" stroke-linecap="round"/>
<line x1="7.99048" y1="13.5" x2="12.9905" y2="13.5" stroke="#6FA4E9" stroke-linecap="round"/>
</svg>
