<svg width="22" height="19" viewBox="0 0 22 19" fill="none" xmlns="http://www.w3.org/2000/svg">
<path d="M10.6121 17.4649H10.6117C9.60354 17.4663 8.59966 17.3391 7.62576 17.0868L7.49995 17.0542L7.38335 17.1116C6.65278 17.4713 4.93958 18.1797 2.03783 18.6452C2.50819 17.5576 2.9322 16.1185 3.06094 14.7948L3.0772 14.6277L2.95698 14.5104C1.41115 13.0025 0.483545 11.0411 0.483545 8.90747C0.483545 4.23246 4.96315 0.35 10.6121 0.35C16.2611 0.35 20.7407 4.23246 20.7407 8.90747C20.7407 13.5825 16.2611 17.4649 10.6121 17.4649ZM2.02471 18.6754L2.02487 18.675L2.02471 18.6754ZM7.03265 8.90747C7.03265 8.47384 6.85525 8.06009 6.5429 7.75664C6.2309 7.45353 5.80983 7.28498 5.37283 7.28498C4.93583 7.28498 4.51477 7.45353 4.20276 7.75664C3.89042 8.06009 3.71301 8.47384 3.71301 8.90747C3.71301 9.3411 3.89042 9.75486 4.20276 10.0583C4.51477 10.3614 4.93583 10.53 5.37283 10.53C5.80983 10.53 6.2309 10.3614 6.5429 10.0583C6.85525 9.75486 7.03265 9.3411 7.03265 8.90747ZM12.2719 8.90747C12.2719 8.47384 12.0945 8.06009 11.7822 7.75664C11.4702 7.45353 11.0491 7.28498 10.6121 7.28498C10.1751 7.28498 9.75405 7.45353 9.44205 7.75664C9.12971 8.06009 8.9523 8.47384 8.9523 8.90747C8.9523 9.34111 9.12971 9.75486 9.44205 10.0583C9.75405 10.3614 10.1751 10.53 10.6121 10.53C11.0491 10.53 11.4702 10.3614 11.7822 10.0583C12.0945 9.75486 12.2719 9.34111 12.2719 8.90747ZM15.8514 10.53C16.2884 10.53 16.7095 10.3614 17.0215 10.0583C17.3338 9.75486 17.5112 9.3411 17.5112 8.90747C17.5112 8.47384 17.3338 8.06009 17.0215 7.75664C16.7095 7.45353 16.2884 7.28498 15.8514 7.28498C15.4144 7.28498 14.9933 7.45353 14.6813 7.75664C14.369 8.06009 14.1916 8.47384 14.1916 8.90747C14.1916 9.3411 14.369 9.75486 14.6813 10.0583C14.9933 10.3614 15.4144 10.53 15.8514 10.53Z" stroke="#6FA4E9" stroke-width="0.7"/>
</svg>
