<svg width="23" height="19" viewBox="0 0 23 19" fill="none" xmlns="http://www.w3.org/2000/svg">
<path d="M16.1488 14.6912C17.6691 13.46 19.1488 12.2357 20.2833 10.8381C21.411 9.44869 22.15 7.90876 22.15 6.04942C22.15 4.35382 21.5514 2.934 20.5424 1.93837C19.5331 0.942415 18.0918 0.350098 16.369 0.350098C14.4257 0.350098 12.7233 1.73078 11.7497 2.73819L11.528 2.99858L11.2763 2.73819C10.3024 1.7305 8.60408 0.350098 6.662 0.350098C4.93869 0.350098 3.49715 0.942432 2.48769 1.93839C1.47857 2.93401 0.880005 4.35382 0.880005 6.04942C0.880005 7.90831 1.61854 9.44801 2.74591 10.8374C3.88001 12.235 5.38951 13.4595 6.9103 14.6913L6.94464 14.7191C8.35862 15.8656 9.85057 17.0752 11.001 18.4217C11.1253 18.5662 11.308 18.6501 11.5 18.6501H11.558C11.7503 18.6501 11.9323 18.5657 12.0561 18.4216C13.2177 17.0644 14.7232 15.8453 16.1488 14.6912ZM16.1488 14.6912L16.369 14.9633" stroke="#6FA4E9" stroke-width="0.7"/>
</svg>
