<svg width="29" height="27" viewBox="0 0 29 27" fill="none" xmlns="http://www.w3.org/2000/svg">
<path d="M22.9806 16.875C26.0325 16.875 28.496 19.1362 28.496 21.9375C28.496 24.7388 26.0325 27 22.9806 27C19.9288 27 17.4653 24.7388 17.4653 21.9375C17.4653 21.5325 17.5204 21.1613 17.6308 20.7731L9.57833 16.8919C8.56719 17.9213 7.13319 18.5625 5.51536 18.5625C2.46353 18.5625 0 16.3013 0 13.5C0 10.6988 2.46353 8.4375 5.51536 8.4375C7.13319 8.4375 8.56719 9.09562 9.57833 10.1081L17.6308 6.22688C17.5204 5.83875 17.4653 5.4675 17.4653 5.0625C17.4653 2.26125 19.9288 0 22.9806 0C26.0325 0 28.496 2.26125 28.496 5.0625C28.496 7.86375 26.0325 10.125 22.9806 10.125C21.3628 10.125 19.9288 9.46688 18.9177 8.45438L10.8652 12.3356C11.0879 13.0984 11.0879 13.9016 10.8652 14.6644L18.9177 18.5456C19.9288 17.5162 21.3628 16.875 22.9806 16.875Z" fill="#545762"/>
</svg>
