<svg width="23" height="22" viewBox="0 0 23 22" fill="none" xmlns="http://www.w3.org/2000/svg">
<path d="M6.10723 18.9082L6.47443 19.0866C8.00461 19.9784 9.71826 20.3947 11.432 20.3947C16.8179 20.3947 21.2246 16.1136 21.2246 10.8812C21.2246 8.38391 20.1841 5.94606 18.348 4.16225C16.5119 2.37845 14.0637 1.36768 11.432 1.36768C6.04608 1.36768 1.63934 5.64875 1.70058 10.9407C1.70058 12.7244 2.25141 14.4488 3.16944 15.9352L3.41423 16.292L2.43505 19.8001L6.10723 18.9082Z" fill="#00E676"/>
<path d="M19.3881 3.21081C17.3072 1.12977 14.4306 0 11.4928 0C5.25014 0 0.231409 4.93512 0.292563 10.9405C0.292563 12.8432 0.843395 14.6865 1.76151 16.3513L0.170166 22L6.10692 20.5135C7.75941 21.4055 9.59546 21.8217 11.4317 21.8217C17.6132 21.8217 22.632 16.8865 22.632 10.8812C22.632 7.9676 21.469 5.23243 19.3882 3.21081H19.3881ZM11.4928 19.9785C9.84034 19.9785 8.18785 19.5623 6.78015 18.7299L6.41295 18.5515L2.86317 19.4433L3.78119 16.0542L3.5364 15.6974C0.843395 11.4758 2.1287 5.88648 6.53535 3.27022C10.942 0.654044 16.634 1.90272 19.327 6.18379C22.0199 10.4649 20.7346 15.9946 16.328 18.6109C14.9202 19.5027 13.2066 19.9784 11.4928 19.9784V19.9785ZM16.8788 13.3785L16.2055 13.0812C16.2055 13.0812 15.2263 12.665 14.6143 12.3677C14.553 12.3677 14.4919 12.3082 14.4306 12.3082C14.247 12.3082 14.1246 12.3677 14.0022 12.4272C14.0022 12.4272 13.941 12.4866 13.0842 13.4379C13.0229 13.5568 12.9005 13.6163 12.7781 13.6163H12.7169C12.6557 13.6163 12.5333 13.5568 12.4721 13.4974L12.1661 13.3785C11.4928 13.0812 10.8809 12.7244 10.3912 12.2488C10.2688 12.1299 10.0851 12.0109 9.96274 11.892C9.53431 11.4758 9.10587 11.0001 8.79992 10.465L8.73868 10.346C8.67752 10.2865 8.67752 10.2271 8.61628 10.1082C8.61628 9.98931 8.61628 9.8704 8.67752 9.81091C8.67752 9.81091 8.92232 9.51359 9.10587 9.33527C9.22836 9.21628 9.28951 9.03795 9.41191 8.91905C9.53431 8.74064 9.59555 8.50282 9.5343 8.32441C9.47315 8.0271 8.73868 6.4217 8.55513 6.06497C8.43264 5.88656 8.31033 5.82715 8.12669 5.76765H7.45346C7.33098 5.76765 7.20867 5.82715 7.08618 5.82715L7.02494 5.88656C6.90254 5.94606 6.78015 6.06497 6.65775 6.12438C6.53535 6.24337 6.47411 6.3622 6.35171 6.48119C5.92328 7.01633 5.67848 7.67037 5.67848 8.32441C5.67848 8.80005 5.80088 9.27577 5.98452 9.692L6.04576 9.8704C6.59659 11.0001 7.33098 12.0109 8.31033 12.9028L8.55513 13.1406C8.73868 13.319 8.92232 13.4379 9.04472 13.6163C10.33 14.6866 11.7989 15.4596 13.4514 15.8758C13.635 15.9352 13.8798 15.9352 14.0634 15.9947H14.6754C14.9815 15.9947 15.3487 15.8758 15.5935 15.7569C15.7771 15.638 15.8995 15.638 16.0219 15.5191L16.1444 15.4001C16.2668 15.2812 16.3892 15.2217 16.5116 15.1028C16.634 14.9839 16.7564 14.865 16.8176 14.746C16.94 14.5082 17.0012 14.2109 17.0624 13.9137V13.4974C17.0624 13.4974 17.0012 13.4379 16.8788 13.3785Z" fill="white"/>
</svg>
